<?xml version="1.0" encoding="UTF-8" standalone="no"?>
<svg
   xmlns:dc="http://purl.org/dc/elements/1.1/"
   xmlns:cc="http://creativecommons.org/ns#"
   xmlns:rdf="http://www.w3.org/1999/02/22-rdf-syntax-ns#"
   xmlns:svg="http://www.w3.org/2000/svg"
   xmlns="http://www.w3.org/2000/svg"
   xmlns:sodipodi="http://sodipodi.sourceforge.net/DTD/sodipodi-0.dtd"
   xmlns:inkscape="http://www.inkscape.org/namespaces/inkscape"
   version="1.1"
   viewBox="0 0 306 306"
   width="306.0pt"
   height="306.0pt"
   id="svg4520"
   sodipodi:docname="heart icon small.svg"
   inkscape:version="0.92.2 (5c3e80d, 2017-08-06)">
  <metadata
     id="metadata4526">
    <rdf:RDF>
      <cc:Work
         rdf:about="">
        <dc:format>image/svg+xml</dc:format>
        <dc:type
           rdf:resource="http://purl.org/dc/dcmitype/StillImage" />
        <dc:title></dc:title>
      </cc:Work>
    </rdf:RDF>
  </metadata>
  <defs
     id="defs4524" />
  <sodipodi:namedview
     pagecolor="#ffffff"
     bordercolor="#666666"
     borderopacity="1"
     objecttolerance="10"
     gridtolerance="10"
     guidetolerance="10"
     inkscape:pageopacity="0"
     inkscape:pageshadow="2"
     inkscape:window-width="2560"
     inkscape:window-height="1361"
     id="namedview4522"
     showgrid="false"
     inkscape:pagecheckerboard="true"
     inkscape:zoom="2.8627451"
     inkscape:cx="204"
     inkscape:cy="204"
     inkscape:window-x="-9"
     inkscape:window-y="-9"
     inkscape:window-maximized="1"
     inkscape:current-layer="svg4520" />
  <path
     d="M 0.00 0.00 L 306.00 0.00 L 306.00 306.00 L 0.00 306.00 L 0.00 0.00 Z"
     fill="#ffffff"
     id="path4516"
     style="opacity:0" />
  <path
     d="M 87.00 29.24 C 99.06 28.56 111.24 30.74 122.25 35.72 C 134.35 40.93 144.46 49.20 153.00 59.14 C 162.47 48.05 174.12 39.12 187.88 34.03 C 202.14 28.50 218.16 27.81 233.02 31.07 C 251.32 35.20 267.85 45.88 279.26 60.74 C 289.62 74.14 295.73 91.04 295.89 108.00 C 296.34 122.86 293.62 137.62 288.39 151.51 C 281.20 170.43 269.10 187.59 254.96 201.97 C 234.44 223.45 209.99 240.01 185.39 256.37 C 174.42 263.69 162.86 271.05 153.00 279.81 C 139.48 267.94 123.38 258.55 108.59 248.30 C 92.36 237.38 76.09 225.61 61.70 212.34 C 45.14 197.22 30.70 180.32 21.16 159.85 C 12.28 140.92 8.38 119.83 10.73 99.00 C 12.91 82.80 20.22 67.31 31.32 55.32 C 45.50 39.76 65.93 30.02 87.00 29.24 Z"
     fill="#000000"
     id="path4518" />
</svg>
