<?xml version="1.0" encoding="iso-8859-1"?>
<!-- Generator: Adobe Illustrator 18.1.1, SVG Export Plug-In . SVG Version: 6.00 Build 0)  -->
<svg version="1.1" id="Capa_1" xmlns="http://www.w3.org/2000/svg" xmlns:xlink="http://www.w3.org/1999/xlink" x="0px" y="0px"
	 viewBox="0 0 315.755 315.755" style="enable-background:new 0 0 315.755 315.755;" xml:space="preserve">
<g>
	<path style="fill:#010002;" d="M252.572,116.933c0.251-2.816,0.43-5.651,0.43-8.527c0-53.195-43.278-96.466-96.466-96.466
		s-96.466,43.272-96.466,96.466c0,3.204,0.173,6.367,0.483,9.493C25.115,132.172,0,166.864,0,207.355
		c0,53.189,43.272,96.46,96.466,96.46c23.313,0,44.716-8.318,61.411-22.131c16.695,13.813,38.098,22.131,61.411,22.131
		c53.189,0,96.466-43.272,96.466-96.46C315.749,165.879,289.381,130.531,252.572,116.933z M72.008,108.4
		c0-46.613,37.919-84.533,84.533-84.533s84.533,37.919,84.533,84.533c0,1.689-0.155,3.335-0.251,4.994
		c-6.934-1.587-14.124-2.512-21.534-2.512c-23.313,0-44.716,8.318-61.411,22.131c-16.695-13.819-38.098-22.131-61.411-22.131
		c-8.36,0-16.427,1.181-24.166,3.186C72.169,112.195,72.008,110.315,72.008,108.4z M180.993,207.355
		c0,22.418-8.831,42.765-23.122,57.908c-14.291-15.144-23.122-35.491-23.122-57.908c0-1.689,0.155-3.335,0.251-4.994
		c6.933,1.587,14.124,2.506,21.528,2.506c8.36,0,16.427-1.181,24.166-3.186C180.832,203.566,180.993,205.439,180.993,207.355z
		 M156.535,192.933c-6.928,0-13.628-0.931-20.079-2.512c3.204-15.687,10.818-29.751,21.415-40.98
		c10.448,11.074,17.978,24.906,21.254,40.336C171.923,191.781,164.369,192.933,156.535,192.933z M125.078,186.799
		c-25.783-10.388-45.312-33.092-51.202-60.814c7.202-2.005,14.756-3.156,22.591-3.156c19.911,0,38.206,6.963,52.67,18.527
		C137.363,153.85,128.866,169.435,125.078,186.799z M166.619,141.349c14.464-11.564,32.752-18.527,52.664-18.527
		c6.928,0,13.628,0.931,20.079,2.512c-5.543,27.149-24.16,49.573-48.952,60.462C186.518,168.839,178.153,153.605,166.619,141.349z
		 M11.934,207.355c0-34.56,20.872-64.305,50.653-77.396c7.315,31.875,30.437,57.7,60.665,68.864c-0.251,2.816-0.43,5.651-0.43,8.533
		c0,25.538,10.048,48.731,26.308,66.006c-14.464,11.564-32.752,18.521-52.664,18.521C49.853,291.881,11.934,253.968,11.934,207.355z
		 M219.282,291.881c-19.911,0-38.206-6.963-52.664-18.521c16.26-17.274,26.308-40.461,26.308-66.006
		c0-3.204-0.173-6.367-0.483-9.493c29.268-11.791,51.446-37.49,58.302-68.905c31.064,12.513,53.069,42.908,53.069,78.393
		C303.815,253.968,265.896,291.881,219.282,291.881z"/>
</g>
<g>
</g>
<g>
</g>
<g>
</g>
<g>
</g>
<g>
</g>
<g>
</g>
<g>
</g>
<g>
</g>
<g>
</g>
<g>
</g>
<g>
</g>
<g>
</g>
<g>
</g>
<g>
</g>
<g>
</g>
</svg>
