<svg height="512pt" viewBox="-31 0 512 512" width="512pt" xmlns="http://www.w3.org/2000/svg"><path d="m435 302c-10.984375 0-103.949219 0-115.457031 0l-84.9375-56.625c-2.800781-2.890625-5.363281-5.945312-7.710938-9.136719 50.933594-44.238281 103.105469-86.480469 103.105469-146.089843 0-49.089844-34.097656-90.148438-82.277344-90.148438-28.125 0-51.132812 14.839844-67.277344 37.878906-16.140624-23.039062-39.152343-37.878906-67.273437-37.878906-48.195313 0-83.171875 35.519531-83.171875 84.460938 0 55.460937 48.011719 101.058593 90 138.929687v21.1875c-4.695312-1.664063-9.742188-2.578125-15-2.578125h-60c-24.8125 0-45 20.1875-45 45 0 11.515625 4.355469 22.03125 11.496094 30-7.140625 7.96875-11.496094 18.484375-11.496094 30s4.355469 22.03125 11.496094 30c-7.140625 7.96875-11.496094 18.484375-11.496094 30s4.355469 22.03125 11.496094 30c-7.140625 7.96875-11.496094 18.484375-11.496094 30 0 24.8125 20.1875 45 45 45h210c2.328125 0 4.625-.542969 6.707031-1.582031l56.832031-28.417969h41.460938v15c0 5.199219 2.691406 10.027344 7.113281 12.761719 2.410157 1.488281 5.144531 2.238281 7.886719 2.238281 2.292969 0 4.589844-.523438 6.707031-1.582031l60-30c5.082031-2.542969 8.292969-7.734375 8.292969-13.417969v-150c0-8.285156-6.714844-15-15-15zm-375-217.539062c0-32.574219 21.367188-54.460938 53.171875-54.460938 35.824219 0 51.503906 40.382812 53.175781 44.984375 2.148438 5.9375 7.789063 9.886719 14.101563 9.886719s11.949219-3.953125 14.101562-9.886719c1.667969-4.605469 17.339844-44.984375 53.171875-44.984375 29.800782 0 52.277344 25.859375 52.277344 60.148438 0 25.089843-13.355469 49.40625-43.304688 78.839843-12.371093 12.160157-26.875 24.945313-43.425781 39.34375-2.140625-7.636719-3.269531-15.609375-3.269531-23.757812v-47.574219c0-8.285156-6.714844-15-15-15-36.78125 0-67.441406 26.625-73.777344 61.609375-39.121094-37.441406-61.222656-67.441406-61.222656-99.148437zm-30 322.539062c0-8.269531 6.730469-15 15-15h60c8.269531 0 15 6.730469 15 15s-6.730469 15-15 15h-60c-8.269531 0-15-6.730469-15-15zm0-60c0-8.269531 6.730469-15 15-15h60c8.269531 0 15 6.730469 15 15s-6.730469 15-15 15h-60c-8.269531 0-15-6.730469-15-15zm15-75h60c8.269531 0 15 6.730469 15 15s-6.730469 15-15 15h-60c-8.269531 0-15-6.730469-15-15s6.730469-15 15-15zm-15 195c0-8.269531 6.730469-15 15-15h60c8.269531 0 15 6.730469 15 15s-6.730469 15-15 15h-60c-8.269531 0-15-6.730469-15-15zm285-15c-2.328125 0-4.625.542969-6.707031 1.582031l-56.832031 28.417969h-104.039063c1.664063-4.695312 2.578125-9.742188 2.578125-15 0-11.515625-4.355469-22.03125-11.496094-30 7.144532-7.96875 11.496094-18.484375 11.496094-30s-4.355469-22.03125-11.496094-30c.070313-.078125.140625-.160156.210938-.242188 18.976562 27.320313 50.574218 45.242188 86.285156 45.242188 8.285156 0 15-6.714844 15-15s-6.714844-15-15-15c-41.355469 0-75-33.644531-75-75v-120c0-19.554688 12.539062-36.238281 30-42.429688v30.003907c0 31.363281 12.214844 60.851562 34.394531 83.03125 1.953125 1.953125-2.707031-1.574219 92.285157 61.875 2.464843 1.640625 5.359374 2.519531 8.320312 2.519531h45v120zm105 5.730469-30 15v-140.730469h30zm0 0"/></svg>