<svg
      xmlns="http://www.w3.org/2000/svg"
      width="223.994"
      height="335.668"
      version="1.1"
      viewBox="0 0 59.265 88.812"
    >
    <g transform="translate(-94.49 -96.323)">
        <path
            fill="currentColor"
            strokeWidth="0.159"
            d="M94.494 96.323c.179 4.337.279 8.863 1.18 12.728 1.74 7.343 4.84 13.774 9.6 19.909 2.627 3.387 9.505 10.17 15.477 15.264 11.972 10.211 16.36 14.87 19.82 21.046 1.66 2.961 2.831 6.09 3.587 9.58.452 2.087.857 4.963.837 5.943l-.016.762-10.24.104c-5.633.057-15.01.057-20.839 0-9.068-.087-10.612-.148-10.694-.42-.358-1.183 1.263-8.76 2.586-12.087l.492-1.24 14.26-.016c7.985-.01 14.997-.078 15.583-.153.674-.085 1.183-.252 1.384-.453.392-.392.243-.74-1.547-3.628l-1.247-2.013-.689-.002-.016-.023-10.68-.038c-10.322-.036-13.08-.11-13.08-.351 0-.245 1.162-1.704 3.1-3.895 1.963-2.219 7.046-7.192 7.797-7.627 1.025-1.332.16-2.527-1.398-3.673-2.538-2.301-4.509-3.983-4.668-3.983-.27 0-6.436 6.136-7.946 7.908-5.105 5.99-9.027 13.3-10.952 20.364a44.517 44.517 0 00-1.206 5.867 20.1 20.1 0 00-.095.722 54.303 54.303 0 00-.386 5.817c-.012.818-.01 1.617.007 2.4h59.236c.018-.826.019-1.664.004-2.516a54.417 54.417 0 00-.464-6.373c-.034-.38-.108-.87-.23-1.502a41.31 41.31 0 00-1.59-6.327c-1.903-6.094-4.785-11.345-9.323-17.123-2.053-2.614-10.807-11.376-15.568-15.582-6.786-5.994-12.364-11.64-15.407-15.594-2.847-3.698-5.465-9.028-6.727-13.692-.441-1.631-1.223-5.85-1.176-6.35.013-.141 7.376-.219 20.888-.218h20.868l-.14 1.17c-.461 3.839-2.451 10.733-3.36 11.637-1.038 1.034-1.285 1.048-19.493 1.095-5.849.015-10.65.09-10.668.169-2.073-.055 1.163 4.255 2.16 5.538l.587.738 12.12.007c4.97.003 8.393.034 10.306.092.167.05.232.11.232.182 0 .23-1.307 2.69-5.092 6.698-1.28 2.062-5.525 5.648-4.274 6.63.329.258 1.846 1.54 3.372 2.847l2.773 2.378 3.875-4.01c5.173-5.355 7.052-7.704 9.619-12.028 5.064-9.241 6.621-17.099 6.72-26.677z"
        ></path>
    </g>
</svg>