<svg
    xmlns="http://www.w3.org/2000/svg"
    width="408"
    height="408"
    version="1.1"
    viewBox="0 0 306 306"
>
    <path
    fill="currentColor"
    d="M87 29.24c12.06-.68 24.24 1.5 35.25 6.48 12.1 5.21 22.21 13.48 30.75 23.42 9.47-11.09 21.12-20.02 34.88-25.11 14.26-5.53 30.28-6.22 45.14-2.96 18.3 4.13 34.83 14.81 46.24 29.67 10.36 13.4 16.47 30.3 16.63 47.26.45 14.86-2.27 29.62-7.5 43.51-7.19 18.92-19.29 36.08-33.43 50.46-20.52 21.48-44.97 38.04-69.57 54.4-10.97 7.32-22.53 14.68-32.39 23.44-13.52-11.87-29.62-21.26-44.41-31.51-16.23-10.92-32.5-22.69-46.89-35.96-16.56-15.12-31-32.02-40.54-52.49C12.28 140.92 8.38 119.83 10.73 99c2.18-16.2 9.49-31.69 20.59-43.68C45.5 39.76 65.93 30.02 87 29.24z"
    ></path>
</svg>