<svg
      xmlns="http://www.w3.org/2000/svg"
      width="799.265"
      height="764.397"
      version="1.1"
      viewBox="0 0 211.472 202.247"
    >
      <g transform="translate(3.768 -50.762)">
        <path
          fill="currentColor"
          strokeWidth="0.265"
          d="M28.73 244.291c-4.306-4.794-13.38-14.909-20.163-22.476l-12.335-13.758 1.933-1.984a2860.94 2860.94 0 008.913-9.26c3.84-4.003 9.67-10.075 12.958-13.495 3.288-3.42 8.406-8.747 11.374-11.84 2.968-3.092 5.492-5.622 5.608-5.622.117 0 .213 5.121.213 11.38v11.382l62.507-.07c52.582-.059 62.655-.128 63.434-.437 1.618-.642 2.683-1.636 3.406-3.177l.695-1.483-.098-17.112-.098-17.112 15.709-12.537c8.64-6.895 15.86-12.628 16.047-12.74.274-.165.324 7.898.261 42.613l-.077 42.817-.587 2.117c-.323 1.164-1.15 3.247-1.839 4.63-1.047 2.103-1.642 2.903-3.643 4.895-3.64 3.624-7.84 5.85-13.875 7.354l-2.275.567-69.615.078-69.616.078-.165 2.973c-.091 1.635-.241 6.544-.334 10.91-.092 4.366-.245 8.408-.338 8.982l-.17 1.045zm-31.643-103.57l.075-46.964.605-2.095C-.284 84.913 3.36 80.607 9.536 77.756c2.7-1.246 5.66-2.036 8.91-2.378 1.607-.17 27.467-.267 71.714-.27l69.2-.004-.08-8.798c-.045-4.838-.114-10.315-.155-12.17-.04-1.856.023-3.374.142-3.374.218 0 48.345 42.174 48.437 42.447.028.082-10.844 10.273-24.159 22.647l-24.21 22.497-.068-11.384-.07-11.384h-62.67c-68.72 0-63.992-.11-65.742 1.532-.42.394-1.047 1.312-1.39 2.04l-.626 1.323-.003 17.449-.003 17.448-5.755 5.833a5979.372 5979.372 0 00-11.978 12.185c-3.423 3.493-7.977 8.137-10.121 10.32l-3.898 3.97z"
        ></path>
      </g>
    </svg>