<svg
    xmlns="http://www.w3.org/2000/svg"
    width="980.082"
    height="979.964"
    version="1.1"
    viewBox="0 0 259.313 259.282"
>
    <g transform="translate(92.768 -51.167)">
        <path
            fill="currentColor"
            strokeWidth="0.265"
            d="M-11.475 310.046c-.764-.206-1.883-.626-2.487-.935-.604-.308-9.385-5.644-19.513-11.857a61269.419 61269.419 0 00-36.11-22.133c-9.732-5.96-18.305-11.387-19.05-12.06-5.658-5.113-5.336-14.602.651-19.189 1.633-1.25 72.822-39.123 75.252-40.034.924-.346 2.474-.652 3.705-.732 6.402-.416 12.02 3.787 13.34 9.982.203.949.296 4.034.267 8.864l-.044 7.408 56.652.067 56.652.067v-48.64l24.011-8c13.206-4.399 24.16-8.053 24.342-8.12.435-.16.484 64.687.052 68.671-.977 8.991-4.172 18.318-8.615 25.144-6.962 10.696-17.17 16.911-31.19 18.991-2.957.438-7.277.477-62.575.563l-59.399.093.086 10.306c.058 6.994-.012 10.773-.216 11.756-1.446 6.965-8.978 11.628-15.81 9.788zm-81.293-146.153c0-21.414.099-34.019.279-35.68 1.485-13.677 7.381-26.174 15.847-33.589 6.046-5.295 12.498-8.306 21.842-10.192l2.91-.588L8.7 83.71l60.59-.134-.101-10.187c-.11-11.167-.022-12.153 1.347-15.05 1.927-4.077 6.885-7.184 11.443-7.171 1.68.005 4.334.623 5.728 1.334.59.3 10.438 6.29 21.886 13.31 11.448 7.019 27.707 16.983 36.131 22.142 8.424 5.159 15.925 9.933 16.669 10.608 3.235 2.939 4.735 7.596 3.84 11.922-.584 2.829-2.492 5.843-4.734 7.482-1.59 1.162-72.679 38.94-74.88 39.793-1.463.567-2.153.666-4.63.667-2.428 0-3.173-.102-4.498-.62-4.176-1.635-7.182-5.095-8.055-9.275-.195-.93-.289-4.13-.26-8.864l.044-7.408-56.653-.067-56.652-.067v48.64l-24.01 8c-13.207 4.399-24.16 8.053-24.342 8.12-.264.097-.331-6.613-.331-32.99z"
        ></path>
    </g>
</svg>