<?xml version="1.0" encoding="iso-8859-1"?>
<!-- Generator: Adobe Illustrator 16.0.0, SVG Export Plug-In . SVG Version: 6.00 Build 0)  -->
<!DOCTYPE svg PUBLIC "-//W3C//DTD SVG 1.1//EN" "http://www.w3.org/Graphics/SVG/1.1/DTD/svg11.dtd">
<svg version="1.1" id="Capa_1" xmlns="http://www.w3.org/2000/svg" xmlns:xlink="http://www.w3.org/1999/xlink" x="0px" y="0px"
	 width="52.779px" height="52.779px" viewBox="0 0 52.779 52.779" style="enable-background:new 0 0 52.779 52.779;"
	 xml:space="preserve">
<g>
	<g>
		<path d="M42.712,19.094c0.01-0.236,0.034-0.469,0.034-0.708c0-9.193-7.479-16.674-16.672-16.674
			c-9.193,0-16.673,7.479-16.673,16.674c0,0.339,0.031,0.669,0.051,1.004C3.87,22.088,0,27.788,0,34.395
			c0,9.193,7.479,16.673,16.673,16.673c3.627,0,6.977-1.176,9.717-3.15c2.738,1.976,6.089,3.15,9.716,3.15
			c9.193,0,16.674-7.479,16.674-16.673C52.777,27.547,48.627,21.658,42.712,19.094z M26.389,41.407
			c-1.33-1.838-2.148-4.062-2.256-6.473c0.637,0.074,1.283,0.123,1.94,0.123c0.878,0,1.733-0.089,2.576-0.221
			C28.559,37.286,27.737,39.545,26.389,41.407z M26.074,30.383c-0.419,0-0.832-0.022-1.239-0.063
			c0.382-1.056,0.906-2.041,1.555-2.937c0.628,0.868,1.141,1.821,1.521,2.846C27.309,30.321,26.7,30.383,26.074,30.383z
			 M20.368,28.937c-2.537-1.378-4.514-3.649-5.531-6.385c0.602-0.093,1.211-0.155,1.836-0.155c2.303,0,4.448,0.664,6.277,1.793
			C21.845,25.607,20.969,27.206,20.368,28.937z M29.828,24.189c1.828-1.129,3.974-1.793,6.277-1.793
			c0.418,0,0.832,0.023,1.238,0.064c-0.938,2.584-2.732,4.753-5.049,6.166C31.697,27.015,30.865,25.521,29.828,24.189z
			 M26.074,6.387c6.435,0,11.686,5.094,11.972,11.459c-0.638-0.074-1.283-0.123-1.94-0.123c-3.627,0-6.978,1.176-9.716,3.15
			c-2.74-1.975-6.09-3.15-9.717-3.15c-0.877,0-1.732,0.088-2.574,0.219C14.335,11.533,19.608,6.387,26.074,6.387z M4.675,34.395
			c0-4.337,2.32-8.132,5.777-10.239c1.584,4.271,4.855,7.727,9.016,9.531c-0.01,0.235-0.035,0.469-0.035,0.708
			c0,3.847,1.321,7.384,3.518,10.206c-1.829,1.13-3.975,1.792-6.277,1.792C10.056,46.393,4.675,41.01,4.675,34.395z M36.105,46.393
			c-2.305,0-4.449-0.662-6.277-1.792c2.195-2.822,3.518-6.359,3.518-10.206c0-0.34-0.029-0.672-0.051-1.005
			c3.966-1.915,7.056-5.348,8.518-9.548c3.743,2.033,6.291,6.002,6.291,10.553C48.103,41.01,42.721,46.393,36.105,46.393z"/>
	</g>
</g>
<g>
</g>
<g>
</g>
<g>
</g>
<g>
</g>
<g>
</g>
<g>
</g>
<g>
</g>
<g>
</g>
<g>
</g>
<g>
</g>
<g>
</g>
<g>
</g>
<g>
</g>
<g>
</g>
<g>
</g>
</svg>
